<svg xmlns="http://www.w3.org/2000/svg" width="560" height="340" viewBox="0 0 560 340" font-family="Helvetica,Arial,sans-serif">
<rect width="560" height="340" fill="#ffffff"/>
<text x="18" y="24" font-size="14" font-weight="bold" fill="#111111">The cumulative wedge</text>
<text x="18" y="41" font-size="10.5" fill="#777777">Cumulative share with any new-money issue since k = −2, |margin| ≤ 5; shaded area = the wedge</text>
<line x1="60" y1="275" x2="530" y2="275" stroke="#111111" stroke-width="1"/>
<line x1="60" y1="55" x2="60" y2="275" stroke="#111111" stroke-width="1"/>
<line x1="60.0" y1="275" x2="60.0" y2="279" stroke="#111111"/>
<text x="60.0" y="291" font-size="9.5" fill="#111111" text-anchor="middle">-2</text>
<line x1="118.8" y1="275" x2="118.8" y2="279" stroke="#111111"/>
<text x="118.8" y="291" font-size="9.5" fill="#111111" text-anchor="middle">-1</text>
<line x1="177.5" y1="275" x2="177.5" y2="279" stroke="#111111"/>
<text x="177.5" y="291" font-size="9.5" fill="#111111" text-anchor="middle">0</text>
<line x1="236.2" y1="275" x2="236.2" y2="279" stroke="#111111"/>
<text x="236.2" y="291" font-size="9.5" fill="#111111" text-anchor="middle">1</text>
<line x1="295.0" y1="275" x2="295.0" y2="279" stroke="#111111"/>
<text x="295.0" y="291" font-size="9.5" fill="#111111" text-anchor="middle">2</text>
<line x1="353.8" y1="275" x2="353.8" y2="279" stroke="#111111"/>
<text x="353.8" y="291" font-size="9.5" fill="#111111" text-anchor="middle">3</text>
<line x1="412.5" y1="275" x2="412.5" y2="279" stroke="#111111"/>
<text x="412.5" y="291" font-size="9.5" fill="#111111" text-anchor="middle">4</text>
<line x1="471.2" y1="275" x2="471.2" y2="279" stroke="#111111"/>
<text x="471.2" y="291" font-size="9.5" fill="#111111" text-anchor="middle">5</text>
<line x1="530.0" y1="275" x2="530.0" y2="279" stroke="#111111"/>
<text x="530.0" y="291" font-size="9.5" fill="#111111" text-anchor="middle">6</text>
<line x1="56" y1="275.0" x2="60" y2="275.0" stroke="#111111"/>
<text x="53" y="278.0" font-size="9.5" fill="#111111" text-anchor="end">0.00</text>
<line x1="60" y1="275.0" x2="530" y2="275.0" stroke="#cccccc" stroke-width="0.6"/>
<line x1="56" y1="212.1" x2="60" y2="212.1" stroke="#111111"/>
<text x="53" y="215.1" font-size="9.5" fill="#111111" text-anchor="end">0.20</text>
<line x1="60" y1="212.1" x2="530" y2="212.1" stroke="#cccccc" stroke-width="0.6"/>
<line x1="56" y1="149.3" x2="60" y2="149.3" stroke="#111111"/>
<text x="53" y="152.3" font-size="9.5" fill="#111111" text-anchor="end">0.40</text>
<line x1="60" y1="149.3" x2="530" y2="149.3" stroke="#cccccc" stroke-width="0.6"/>
<line x1="56" y1="86.4" x2="60" y2="86.4" stroke="#111111"/>
<text x="53" y="89.4" font-size="9.5" fill="#111111" text-anchor="end">0.60</text>
<line x1="60" y1="86.4" x2="530" y2="86.4" stroke="#cccccc" stroke-width="0.6"/>
<text x="295.0" y="307" font-size="10.5" fill="#111111" text-anchor="middle">Years since the vote</text>
<text x="66" y="67" font-size="9.5" fill="#777777">cumulative share</text>
<polygon points="60.0,243.0 118.8,228.1 177.5,116.7 236.2,105.6 295.0,99.9 353.8,95.7 412.5,91.9 471.2,86.5 530.0,81.3 530.0,114.1 471.2,118.0 412.5,125.2 353.8,134.6 295.0,145.3 236.2,159.9 177.5,182.4 118.8,226.2 60.0,241.2" fill="#e8e8e8"/>
<polyline points="60.0,243.0 118.8,228.1 177.5,116.7 236.2,105.6 295.0,99.9 353.8,95.7 412.5,91.9 471.2,86.5 530.0,81.3" fill="none" stroke="#111111" stroke-width="2"/>
<polyline points="60.0,241.2 118.8,226.2 177.5,182.4 236.2,159.9 295.0,145.3 353.8,134.6 412.5,125.2 471.2,118.0 530.0,114.1" fill="none" stroke="#111111" stroke-width="2" stroke-dasharray="6,4"/>
<line x1="177.5" y1="55" x2="177.5" y2="275" stroke="#777777" stroke-width="1" stroke-dasharray="3,3"/>
<text x="494.8" y="75.3" font-size="10" fill="#111111">barely passed (solid)</text>
<text x="494.8" y="128.1" font-size="10" fill="#111111">barely failed (dashed)</text>
<text x="68" y="83" font-size="10.5" fill="#111111">median delay ≈ 0.8 years; never-issued gap +10.0pp at k = +6</text>
</svg>